<?xml version="1.0" encoding="utf-8"?>
<!-- Generator: Adobe Illustrator 27.5.0, SVG Export Plug-In . SVG Version: 6.00 Build 0)  -->
<svg version="1.1" xmlns="http://www.w3.org/2000/svg" xmlns:xlink="http://www.w3.org/1999/xlink" x="0px" y="0px"
	 viewBox="0 0 500 500" style="enable-background:new 0 0 500 500;" xml:space="preserve">
<g id="BACKGROUND">
	<rect style="fill-rule:evenodd;clip-rule:evenodd;fill:#FFFFFF;" width="500" height="500"/>
</g>
<g id="OBJECTS">
	<g>
		<path style="fill-rule:evenodd;clip-rule:evenodd;fill:#DFE5F3;" d="M112.139,128.249c41.459,12.783,75.475,24.855,36.675,39.414
			c-31.905,11.971-115.996,35.247-116.437,73.88c-0.16,14.003,11.421,27.299,41.05,36.302c16.671,5.064,32.62,7.108,44.801,7.378
			c6.723,4.673,35.443,11.246,1.526,19.813c-73.51,18.563-95.066,80.76-4.463,89.794c-10.871,5.601-17.004,11.787-17.004,18.179
			c0,21.582,69.962,37.297,156.265,35.096c86.303-2.199,156.265-21.482,156.265-43.064c0-10.27-15.845-19.208-41.743-25.522
			c11.271-2.277,22.368-4.786,33.4-7.528c76.517-19.025,62.139-58.128,37.914-68.768c-36.048-15.832-105.13-0.563-58.261-20.095
			c36.786-15.331,54.712-35.023,45.444-52.176c13.209-10.174,43.859-33.463,22.722-49.256
			c-25.757-19.244-68.048-8.634-97.924-12.403c-15.206-1.919-14.503-9.3,6.395-22.223c48.291-29.865,68.819-76.303-1.328-96.076
			c-66.414-18.721-152.122-10.754-211.735,13.648C93.045,86.195,71.076,115.588,112.139,128.249L112.139,128.249z M456.769,232.159
			c3.2,5.403-0.591,12.068-5.38,14.907c-12.61,7.471-19.178-15.068-11.591-19.563C444.59,224.665,453.568,226.758,456.769,232.159
			L456.769,232.159z M405.216,123.916c8.741,0,14.035,9.271,14.035,17.022c0,20.404-31.652,12.278-31.652,0
			C387.599,133.187,396.477,123.916,405.216,123.916L405.216,123.916z M84.276,124.448c5.887,0,9.452,6.243,9.452,11.463
			c0,13.742-21.318,8.27-21.318,0C72.41,130.691,78.389,124.448,84.276,124.448z"/>
		<path style="fill-rule:evenodd;clip-rule:evenodd;fill:#324360;" d="M245.864,37.476c43.579,0,80.077,39.037,80.077,82.043
			c0,64.139-60.059,59.095-60.059,108.2c-1.727,11.976-8.042,17.993-18.827,17.993c-11.499-2.563-17.279-8.043-17.279-16.444v-5.184
			c0-65.783,59.7-58.831,59.7-106.532c0-24.568-21.67-43.613-45.579-43.613c-17.338,0-30.863,9.176-40.634,27.587l-4.708,23.058
			c-5.243,6.732-10.784,10.129-16.623,10.129c-11.976-2.563-17.934-8.521-17.934-17.815c0-25.501,12.512-47.725,37.477-66.612
			C216.729,41.765,231.506,37.476,245.864,37.476L245.864,37.476z M248.129,253.458c2.182,0,4.22,0.284,6.103,0.81
			c9.98,2.78,15.643,12.305,15.773,21.899c0.087,6.334-2.255,13.198-7.097,17.859c-12.901,12.423-39.208,4.321-39.208-16.855
			C223.7,262.696,233.921,253.458,248.129,253.458z"/>
		<g>
			<g>
				<path style="fill-rule:evenodd;clip-rule:evenodd;fill:#4D5F30;" d="M54.35,401.204c-0.972-1.57-2.26-3.564-3.931-4.084
					c-0.864-0.27-1.592-0.168-2.121,0.147c-0.313,0.188-0.555,0.449-0.713,0.752c-0.157,0.305-0.231,0.651-0.208,1.009
					c0.038,0.608,0.353,1.244,1.004,1.748c0.863,0.665,2.111,0.737,3.338,0.809c0.756,0.043,1.503,0.086,2.106,0.271
					c0.028,0.1,0.084,0.189,0.17,0.259c0.955,0.774,1.819,1.661,2.613,2.634c-0.375-0.193-0.76-0.321-1.149-0.346
					c-0.658-0.044-1.157,0.154-1.479,0.47c-0.192,0.188-0.32,0.42-0.381,0.668c-0.06,0.247-0.053,0.509,0.025,0.762
					c0.133,0.427,0.467,0.826,1.016,1.071c0.717,0.319,1.586,0.161,2.44,0.006c0.455-0.081,0.904-0.162,1.296-0.162
					c1.782,2.805,3.202,6.031,4.605,9.226c1.121,2.545,2.23,5.07,3.512,7.359c-4.195-4.154-7.767-7.584-10.972-10.442
					c-0.034-0.389,0.007-0.837,0.049-1.291c0.079-0.862,0.159-1.739-0.224-2.423c-0.293-0.522-0.723-0.819-1.161-0.911
					c-0.261-0.056-0.523-0.039-0.764,0.042c-0.241,0.083-0.459,0.232-0.631,0.441c-0.281,0.345-0.434,0.849-0.341,1.482
					c-0.182-0.151-0.363-0.3-0.543-0.448c-1.319-1.087-2.584-2.069-3.819-2.963c-0.117-0.379-0.167-0.841-0.219-1.308
					c-0.095-0.861-0.19-1.735-0.703-2.33c-0.392-0.452-0.873-0.658-1.322-0.662c-0.266-0.002-0.521,0.066-0.74,0.195
					c-0.221,0.131-0.405,0.319-0.531,0.559c-0.157,0.298-0.223,0.671-0.15,1.098c-2.009-1.226-3.995-2.234-6.064-3.092
					c-0.106-0.044-0.218-0.05-0.322-0.023c-2.303-1.356-5.338-3.099-7.835-2.645c-1.249,0.227-2.085,0.819-2.531,1.545
					c-0.263,0.427-0.39,0.899-0.388,1.369c0.002,0.469,0.134,0.936,0.389,1.355c0.439,0.721,1.241,1.301,2.377,1.501
					c1.514,0.266,3.144-0.468,4.748-1.191c1.034-0.465,2.057-0.926,2.989-1.084c0.048,0.052,0.108,0.094,0.179,0.124
					c2.236,0.927,4.375,2.035,6.557,3.409c-0.769-0.175-1.524-0.223-2.204-0.038c-0.869,0.237-1.423,0.712-1.696,1.255
					c-0.162,0.322-0.224,0.669-0.192,1.006c0.03,0.338,0.155,0.665,0.363,0.95c0.358,0.486,0.964,0.85,1.781,0.92
					c1.08,0.095,2.162-0.512,3.226-1.107c0.626-0.351,1.246-0.697,1.826-0.873c1.173,0.853,2.375,1.791,3.627,2.82
					c2.882,2.372,6.033,5.25,9.692,8.772c-0.358-0.101-0.717-0.147-1.064-0.112c-0.655,0.065-1.115,0.343-1.379,0.708
					c-0.159,0.218-0.248,0.468-0.267,0.721c-0.019,0.254,0.032,0.511,0.152,0.746c0.2,0.399,0.597,0.736,1.18,0.888
					c0.761,0.197,1.592-0.101,2.409-0.395c0.422-0.152,0.84-0.303,1.22-0.37c1.81,1.769,3.74,3.687,5.817,5.765
					c0.291,0.291,0.579,0.573,0.865,0.854l0.003,0.002c0.013,0.015,0.027,0.027,0.042,0.04
					c14.44,14.059,22.636,12.708,22.661,12.706c0.282-0.04,0.477-0.3,0.437-0.583c-0.04-0.281-0.3-0.476-0.581-0.436
					c-0.015,0.002-3.158,0.52-9.081-2.662c-0.069-0.393-0.058-0.861-0.047-1.334c0.021-0.865,0.042-1.745-0.388-2.402
					c-0.329-0.503-0.777-0.77-1.22-0.833c-0.263-0.037-0.524-0.004-0.759,0.096c-0.235,0.098-0.444,0.262-0.601,0.483
					c-0.26,0.367-0.379,0.889-0.234,1.524c0.053,0.237,0.146,0.467,0.27,0.689c-2.248-1.47-4.793-3.417-7.626-5.996
					c0.056-0.392,0.205-0.83,0.356-1.273c0.28-0.821,0.564-1.654,0.353-2.41c-0.161-0.578-0.508-0.967-0.91-1.16
					c-0.24-0.113-0.498-0.161-0.752-0.138c-0.254,0.024-0.503,0.117-0.719,0.281c-0.358,0.271-0.626,0.733-0.682,1.388
					c-0.035,0.423,0.052,0.86,0.212,1.294c-2.815-3.061-4.736-7.428-6.687-11.863c-0.603-1.369-1.208-2.745-1.844-4.093
					c0.157-0.35,0.401-0.717,0.648-1.088c0.479-0.723,0.968-1.457,0.958-2.242c-0.007-0.603-0.241-1.067-0.582-1.358
					c-0.2-0.171-0.438-0.281-0.689-0.323c-0.251-0.042-0.515-0.016-0.765,0.088l-0.019,0.008c-0.41,0.174-0.782,0.551-0.999,1.16
					c-0.07,0.197-0.113,0.405-0.132,0.621c-1.58-2.893-3.425-5.513-5.855-7.482C54.557,401.247,54.454,401.21,54.35,401.204z"/>
			</g>
			<g>
				<path style="fill-rule:evenodd;clip-rule:evenodd;fill:#4D5F30;" d="M445.795,400.208c0.735-1.694,1.722-3.853,3.301-4.611
					c0.816-0.391,1.551-0.395,2.118-0.159c0.338,0.141,0.614,0.363,0.815,0.643c0.198,0.277,0.322,0.609,0.351,0.967
					c0.052,0.606-0.169,1.281-0.741,1.874c-0.757,0.784-1.98,1.035-3.187,1.283c-0.741,0.151-1.474,0.302-2.045,0.572
					c-0.012,0.102-0.057,0.199-0.129,0.281c-0.835,0.903-1.563,1.906-2.206,2.982c0.343-0.244,0.705-0.429,1.087-0.508
					c0.644-0.138,1.167-0.014,1.53,0.252c0.218,0.159,0.38,0.369,0.474,0.605c0.096,0.235,0.125,0.496,0.085,0.758
					c-0.069,0.44-0.342,0.883-0.849,1.207c-0.664,0.418-1.547,0.388-2.413,0.358c-0.462-0.017-0.918-0.032-1.308,0.025
					c-1.357,3.031-2.296,6.432-3.226,9.793c-0.74,2.682-1.474,5.34-2.411,7.79c3.551-4.717,6.591-8.626,9.348-11.918
					c-0.021-0.388-0.127-0.825-0.233-1.268c-0.202-0.842-0.407-1.699-0.128-2.43c0.214-0.561,0.596-0.915,1.018-1.07
					c0.25-0.093,0.512-0.114,0.762-0.067c0.249,0.047,0.487,0.162,0.689,0.346c0.328,0.299,0.552,0.776,0.552,1.418
					c0.157-0.177,0.314-0.352,0.472-0.523c1.148-1.266,2.26-2.423,3.352-3.485c0.061-0.391,0.044-0.855,0.028-1.323
					c-0.031-0.865-0.061-1.745,0.359-2.407c0.321-0.506,0.768-0.778,1.214-0.845c0.262-0.043,0.523-0.012,0.759,0.085
					c0.237,0.096,0.448,0.257,0.607,0.476c0.198,0.273,0.317,0.632,0.307,1.064c1.813-1.501,3.631-2.786,5.556-3.935
					c0.097-0.059,0.208-0.08,0.314-0.069c2.081-1.676,4.834-3.836,7.37-3.747c1.27,0.044,2.182,0.511,2.728,1.163
					c0.322,0.385,0.516,0.831,0.58,1.298c0.067,0.465,0.004,0.946-0.187,1.397c-0.33,0.776-1.041,1.466-2.136,1.827
					c-1.459,0.483-3.18-0.009-4.872-0.491c-1.09-0.313-2.166-0.62-3.114-0.644c-0.039,0.06-0.093,0.109-0.158,0.149
					c-2.078,1.239-4.034,2.646-5.995,4.321c0.734-0.284,1.476-0.441,2.175-0.354c0.893,0.109,1.51,0.497,1.857,0.994
					c0.207,0.296,0.319,0.63,0.337,0.968c0.018,0.339-0.058,0.681-0.223,0.993c-0.284,0.532-0.832,0.98-1.63,1.168
					c-1.055,0.249-2.213-0.193-3.352-0.629c-0.67-0.258-1.334-0.512-1.934-0.603c-1.038,1.015-2.093,2.116-3.182,3.315
					c-2.51,2.764-5.212,6.066-8.323,10.08c0.339-0.153,0.687-0.251,1.035-0.268c0.659-0.027,1.152,0.181,1.468,0.502
					c0.19,0.193,0.313,0.427,0.367,0.676c0.056,0.247,0.043,0.51-0.043,0.761c-0.139,0.423-0.483,0.815-1.04,1.048
					c-0.724,0.305-1.588,0.13-2.439-0.044c-0.44-0.089-0.876-0.177-1.261-0.189c-1.535,2.013-3.17,4.188-4.925,6.544
					c-0.245,0.331-0.489,0.652-0.732,0.97l-0.002,0.004c-0.012,0.016-0.023,0.03-0.036,0.046
					c-12.259,15.995-20.564,15.845-20.589,15.845c-0.283,0-0.516-0.229-0.516-0.515c-0.001-0.283,0.229-0.516,0.512-0.516
					c0.015,0,3.199,0.06,8.603-3.944c0.011-0.399-0.067-0.861-0.146-1.326c-0.146-0.853-0.292-1.722,0.037-2.435
					c0.253-0.545,0.658-0.873,1.087-0.999c0.256-0.075,0.518-0.079,0.765-0.016c0.248,0.064,0.478,0.194,0.665,0.391
					c0.311,0.326,0.503,0.824,0.452,1.477c-0.019,0.241-0.079,0.481-0.168,0.719c2.012-1.779,4.248-4.072,6.682-7.033
					c-0.112-0.382-0.324-0.794-0.537-1.209c-0.396-0.772-0.798-1.557-0.697-2.334c0.076-0.596,0.362-1.031,0.733-1.28
					c0.221-0.148,0.47-0.23,0.723-0.244c0.257-0.015,0.517,0.043,0.754,0.174c0.394,0.216,0.725,0.635,0.874,1.274
					c0.097,0.414,0.074,0.859-0.023,1.311c2.345-3.435,3.614-8.034,4.905-12.705c0.397-1.441,0.798-2.89,1.231-4.315
					c-0.205-0.324-0.499-0.651-0.797-0.984c-0.579-0.646-1.168-1.302-1.272-2.079c-0.079-0.597,0.085-1.092,0.38-1.428
					c0.173-0.198,0.392-0.342,0.635-0.42c0.245-0.077,0.508-0.089,0.77-0.025l0.021,0.007c0.431,0.112,0.853,0.433,1.155,1.004
					c0.1,0.185,0.172,0.385,0.222,0.597c1.144-3.091,2.593-5.95,4.713-8.25C445.597,400.281,445.692,400.228,445.795,400.208z"/>
			</g>
			<g>
				<path style="fill-rule:evenodd;clip-rule:evenodd;fill:#4D5F30;" d="M122.772,378.396c-0.825-1.651-1.84-3.796-1.404-5.492
					c0.226-0.876,0.695-1.441,1.24-1.724c0.325-0.17,0.674-0.237,1.015-0.212c0.342,0.026,0.675,0.147,0.967,0.353
					c0.496,0.354,0.873,0.955,0.958,1.774c0.112,1.084-0.484,2.183-1.07,3.265c-0.36,0.665-0.717,1.324-0.877,1.934
					c0.07,0.075,0.116,0.172,0.13,0.28c0.156,1.22,0.455,2.421,0.865,3.608c0.033-0.42,0.126-0.816,0.31-1.16
					c0.309-0.582,0.741-0.901,1.178-1.01c0.261-0.064,0.525-0.053,0.768,0.028c0.242,0.078,0.46,0.222,0.634,0.422
					c0.293,0.338,0.457,0.831,0.375,1.426c-0.105,0.779-0.697,1.434-1.278,2.079c-0.308,0.343-0.614,0.683-0.82,1.017
					c1.448,2.99,3.444,5.896,5.419,8.771c1.576,2.293,3.138,4.566,4.41,6.86c-1.324-5.753-2.361-10.596-3.104-14.826
					c-0.312-0.232-0.714-0.434-1.121-0.636c-0.775-0.388-1.564-0.781-1.943-1.467c-0.29-0.524-0.317-1.046-0.165-1.468
					c0.09-0.25,0.242-0.464,0.438-0.626c0.198-0.162,0.44-0.27,0.71-0.305c0.44-0.059,0.949,0.078,1.439,0.491
					c-0.034-0.234-0.066-0.468-0.097-0.699c-0.23-1.692-0.4-3.286-0.509-4.807c-0.261-0.3-0.626-0.585-0.996-0.875
					c-0.682-0.533-1.375-1.074-1.61-1.823c-0.18-0.571-0.101-1.09,0.133-1.474c0.138-0.226,0.33-0.407,0.555-0.526
					c0.226-0.118,0.484-0.177,0.754-0.158c0.336,0.024,0.687,0.165,1.011,0.45c0.018-2.353,0.204-4.571,0.563-6.784
					c0.019-0.113,0.073-0.211,0.15-0.284c0.059-2.673,0.175-6.17,1.875-8.054c0.851-0.942,1.795-1.342,2.646-1.339
					c0.501,0.002,0.969,0.142,1.367,0.389c0.398,0.25,0.726,0.607,0.948,1.045c0.383,0.752,0.453,1.74,0.025,2.812
					c-0.57,1.426-2.052,2.427-3.512,3.409c-0.94,0.635-1.87,1.262-2.496,1.971c0.018,0.07,0.023,0.142,0.012,0.218
					c-0.389,2.39-0.571,4.792-0.551,7.37c0.255-0.745,0.612-1.414,1.127-1.894c0.659-0.613,1.353-0.836,1.958-0.781
					c0.359,0.032,0.687,0.161,0.958,0.366c0.27,0.203,0.483,0.48,0.615,0.809c0.226,0.561,0.215,1.266-0.155,1.999
					c-0.488,0.966-1.572,1.568-2.639,2.16c-0.628,0.348-1.25,0.692-1.704,1.092c0.11,1.447,0.272,2.962,0.49,4.569
					c0.5,3.699,1.288,7.892,2.357,12.857c0.103-0.357,0.251-0.686,0.464-0.964c0.402-0.522,0.879-0.765,1.328-0.8
					c0.27-0.021,0.528,0.036,0.754,0.153c0.225,0.117,0.417,0.296,0.556,0.522c0.233,0.381,0.312,0.895,0.132,1.471
					c-0.233,0.751-0.924,1.3-1.604,1.84c-0.351,0.278-0.699,0.555-0.956,0.844c0.552,2.469,1.165,5.12,1.839,7.98
					c0.094,0.4,0.184,0.793,0.27,1.184l0.001,0.004c0.005,0.02,0.009,0.038,0.011,0.057c4.353,19.677-1.108,25.936-1.124,25.956
					c-0.182,0.217-0.507,0.246-0.725,0.064c-0.218-0.182-0.247-0.507-0.065-0.725c0.01-0.013,2.105-2.409,2.518-9.123
					c-0.298-0.264-0.703-0.502-1.11-0.741c-0.747-0.438-1.505-0.883-1.839-1.594c-0.254-0.546-0.246-1.066-0.066-1.477
					c0.107-0.242,0.273-0.447,0.481-0.595c0.208-0.149,0.456-0.239,0.727-0.257c0.45-0.028,0.955,0.145,1.421,0.602
					c0.173,0.171,0.32,0.371,0.443,0.594c-0.067-2.687-0.383-5.875-1.085-9.641c-0.363-0.16-0.814-0.264-1.269-0.369
					c-0.846-0.193-1.705-0.391-2.236-0.967c-0.406-0.442-0.555-0.941-0.507-1.385c0.028-0.265,0.125-0.51,0.278-0.713
					c0.155-0.204,0.364-0.365,0.618-0.464c0.419-0.162,0.954-0.147,1.539,0.151c0.378,0.192,0.704,0.497,0.988,0.86
					c-1.12-4.002-3.823-7.934-6.567-11.928c-0.847-1.234-1.698-2.473-2.51-3.723c-0.379-0.052-0.82-0.037-1.265-0.022
					c-0.867,0.027-1.749,0.057-2.412-0.366c-0.508-0.322-0.779-0.767-0.848-1.208c-0.04-0.26-0.009-0.522,0.087-0.757
					c0.096-0.236,0.258-0.446,0.477-0.605l0.017-0.011c0.363-0.258,0.88-0.376,1.513-0.239c0.204,0.044,0.404,0.119,0.598,0.215
					c-1.628-2.864-2.884-5.814-3.28-8.916C122.7,378.595,122.722,378.488,122.772,378.396z"/>
			</g>
			<g>
				<path style="fill-rule:evenodd;clip-rule:evenodd;fill:#4D5F30;" d="M123.019,401.84c-0.171,0.024-0.342,0.053-0.516,0.087
					c-5.856,1.117-10.219,5.32-7.037,10.73c3.183,5.409-10.1,4.765-11.133,9.962c-0.758,3.809,3.819,5.4,8.923,7.821
					c5.103,2.421-11.425,7.354-1.982,11.854c20.734,9.883,16.358,7.111,30.102-1.469c8.621-5.381-8.592-8.667-3.932-11.565
					c4.661-2.896,8.936-4.919,7.553-8.625c-1.887-5.056-14.955-3.125-12.695-8.801c2.26-5.673-2.764-9.419-8.759-9.958
					C123.368,401.859,123.193,401.848,123.019,401.84z"/>
				<path style="fill-rule:evenodd;clip-rule:evenodd;fill:#4D5F30;" d="M182.389,408.47c0.161,0.065,0.321,0.132,0.481,0.204
					c5.434,2.452,8.696,7.557,4.34,12.076c-4.356,4.518,8.711,6.986,8.504,12.281c-0.151,3.883-4.973,4.362-10.499,5.527
					c-5.527,1.164,9.395,9.814-0.836,11.988c-22.467,4.776-17.566,3.102-28.93-8.445c-7.128-7.242,10.375-6.427,6.52-10.329
					c-3.857-3.905-7.544-6.868-5.334-10.15c3.013-4.475,15.27,0.447,14.396-5.598c-0.875-6.044,4.884-8.518,10.839-7.644
					C182.045,408.407,182.219,408.438,182.389,408.47z"/>
			</g>
			<g>
				<path style="fill-rule:evenodd;clip-rule:evenodd;fill:#748B4B;" d="M152.977,392.645c-0.168,0.012-0.338,0.028-0.509,0.05
					c-5.815,0.724-10.885,5.072-9.041,11.479c1.844,6.404-10.649,4.454-12.77,10.231c-1.555,4.235,2.451,6.454,6.775,9.659
					c4.325,3.204-12.476,7.258-4.479,13.211c17.561,13.072,14.004,9.539,28.956,1.109c9.377-5.287-6.276-10.584-1.209-13.43
					c5.067-2.843,9.578-4.737,9.073-9.053c-0.689-5.883-13.542-4.904-10.15-11.108c3.392-6.204-0.569-10.899-6.152-12.06
					C153.305,392.698,153.14,392.67,152.977,392.645z"/>
				<g>
					
						<rect x="123.03" y="424.732" transform="matrix(0.0976 -0.9952 0.9952 0.0976 -287.6492 533.2206)" style="fill:#98AA83;" width="54.37" height="1"/>
				</g>
			</g>
			<g>
				<path style="fill-rule:evenodd;clip-rule:evenodd;fill:#4D5F30;" d="M325.242,397.322c0.172,0.024,0.343,0.053,0.517,0.086
					c5.855,1.117,10.219,5.322,7.035,10.731c-3.183,5.409,10.1,4.765,11.134,9.962c0.757,3.809-3.819,5.399-8.924,7.82
					c-5.102,2.422,11.426,7.354,1.981,11.854c-20.733,9.882-16.357,7.111-30.1-1.47c-8.622-5.38,8.59-8.667,3.932-11.565
					c-4.661-2.896-8.936-4.919-7.554-8.624c1.887-5.055,14.954-3.125,12.694-8.8c-2.261-5.675,2.764-9.42,8.758-9.96
					C324.893,397.342,325.068,397.33,325.242,397.322z"/>
				<path style="fill-rule:evenodd;clip-rule:evenodd;fill:#4D5F30;" d="M265.873,403.952c-0.16,0.065-0.32,0.132-0.481,0.204
					c-5.435,2.452-8.697,7.557-4.341,12.074c4.355,4.521-8.711,6.988-8.505,12.284c0.152,3.882,4.974,4.361,10.501,5.525
					c5.527,1.164-9.396,9.814,0.837,11.99c22.467,4.775,17.565,3.101,28.93-8.446c7.128-7.243-10.375-6.427-6.519-10.329
					c3.857-3.904,7.543-6.869,5.334-10.15c-3.015-4.476-15.271,0.447-14.397-5.597c0.874-6.046-4.885-8.517-10.84-7.644
					C266.217,403.889,266.043,403.919,265.873,403.952z"/>
			</g>
			<g>
				<path style="fill-rule:evenodd;clip-rule:evenodd;fill:#748B4B;" d="M298.975,388.127c0.167,0.013,0.335,0.028,0.505,0.05
					c5.772,0.725,10.571,5.072,8.333,11.477c-2.24,6.405,10.373,4.455,12.136,10.232c1.293,4.235-2.85,6.454-7.373,9.659
					c-4.522,3.204,12.027,7.259,3.662,13.211c-18.369,13.073-14.594,9.54-29.024,1.11c-9.049-5.288,6.932-10.584,2.04-13.429
					c-4.891-2.846-9.283-4.738-8.512-9.053c1.053-5.885,13.844-4.905,10.836-11.111c-3.007-6.203,1.243-10.897,6.9-12.058
					C298.643,388.181,298.808,388.151,298.975,388.127z"/>
				
					<rect x="298.939" y="393.641" transform="matrix(0.9994 -0.0359 0.0359 0.9994 -14.9292 11.0456)" style="fill-rule:evenodd;clip-rule:evenodd;fill:#98AA83;" width="1.564" height="54.145"/>
			</g>
			<g>
				<g>
					<path style="fill-rule:evenodd;clip-rule:evenodd;fill:#4D5F30;" d="M61.987,381.268c-0.108,0.092-0.215,0.191-0.319,0.298
						c-3.525,3.568-3.656,11.008,2.714,17.597c6.37,6.59-3.979,10.179-0.899,17.897c2.257,5.657,6.836,6.361,12.421,8.063
						c5.585,1.702-3.047,14.299,7.303,17.478c22.726,6.977,17.423,4.534,21.286-12.29c2.423-10.553-12.804-9.375-11.484-15.063
						c1.319-5.688,3-10.005-0.772-14.79c-5.144-6.525-13.427,0.642-15.949-8.169c-2.521-8.812-9.028-12.418-13.883-11.15
						C62.262,381.177,62.122,381.22,61.987,381.268z"/>
					
						<rect x="85.057" y="382.363" transform="matrix(0.8585 -0.5129 0.5129 0.8585 -203.5132 103.5433)" style="fill-rule:evenodd;clip-rule:evenodd;fill:#98AA83;" width="1.564" height="76.25"/>
				</g>
				<g>
					<path style="fill-rule:evenodd;clip-rule:evenodd;fill:#748B4B;" d="M102.232,357.551c-0.158,0.053-0.316,0.113-0.474,0.182
						c-5.359,2.315-8.743,10.28-4.744,20.165c3.999,9.884-8.729,9.245-8.772,18.912c-0.032,7.087,4.602,9.843,9.884,14.112
						c5.282,4.271-9.52,14.096,0.258,22.035c21.472,17.433,16.816,12.485,28.316-3.978c7.213-10.325-9.723-15.692-5.821-21.252
						c3.902-5.56,7.597-9.486,5.615-16.29c-2.705-9.28-14.764-5.161-13.642-15.765c1.121-10.603-4.326-17.329-10.115-18.078
						C102.566,357.571,102.398,357.559,102.232,357.551z"/>
					<polygon style="fill-rule:evenodd;clip-rule:evenodd;fill:#98AA83;" points="104.81,366.309 118.458,453.961 116.913,454.199 
						103.266,366.547 					"/>
				</g>
			</g>
			<g>
				<g>
					<path style="fill-rule:evenodd;clip-rule:evenodd;fill:#4D5F30;" d="M443.62,381.268c0.108,0.092,0.215,0.191,0.318,0.298
						c3.525,3.568,3.656,11.008-2.713,17.597c-6.371,6.59,3.978,10.179,0.898,17.897c-2.258,5.657-6.837,6.361-12.422,8.063
						c-5.585,1.702,3.047,14.299-7.303,17.478c-22.726,6.977-17.423,4.534-21.285-12.29c-2.423-10.553,12.803-9.375,11.484-15.063
						c-1.319-5.688-2.999-10.005,0.771-14.79c5.145-6.525,13.428,0.642,15.949-8.169c2.523-8.812,9.028-12.418,13.884-11.15
						C443.346,381.177,443.485,381.22,443.62,381.268z"/>
					
						<rect x="381.644" y="419.706" transform="matrix(0.5129 -0.8585 0.8585 0.5129 -156.494 565.1852)" style="fill-rule:evenodd;clip-rule:evenodd;fill:#98AA83;" width="76.25" height="1.564"/>
				</g>
				<g>
					<path style="fill-rule:evenodd;clip-rule:evenodd;fill:#748B4B;" d="M403.374,357.551c0.159,0.053,0.316,0.113,0.475,0.182
						c5.36,2.315,8.743,10.28,4.743,20.165c-3.998,9.884,8.729,9.245,8.773,18.912c0.031,7.087-4.604,9.843-9.885,14.112
						c-5.282,4.271,9.52,14.096-0.259,22.035c-21.472,17.433-16.815,12.485-28.316-3.978c-7.213-10.325,9.723-15.692,5.822-21.252
						c-3.903-5.56-7.597-9.486-5.615-16.29c2.704-9.28,14.764-5.161,13.643-15.765c-1.121-10.603,4.325-17.329,10.114-18.078
						C403.04,357.571,403.209,357.559,403.374,357.551z"/>
					<polygon style="fill-rule:evenodd;clip-rule:evenodd;fill:#98AA83;" points="402.341,366.547 388.693,454.199 387.149,453.961 
						400.797,366.309 					"/>
				</g>
			</g>
			<path style="fill-rule:evenodd;clip-rule:evenodd;fill:#748B4B;" d="M246.941,462.524c111.207,0,201.91-7.64,201.91-17.009
				c0-9.368-90.703-17.008-201.91-17.008c-111.208,0-201.91,7.64-201.91,17.008C45.031,454.885,135.732,462.524,246.941,462.524z"/>
			<g>
				<path style="fill-rule:evenodd;clip-rule:evenodd;fill:#98AA83;" d="M300.625,442.461c0.402,0,0.73-0.896,0.73-1.993
					c0-1.098-0.328-1.993-0.73-1.993c-0.403,0-0.731,0.895-0.731,1.993C299.894,441.565,300.222,442.461,300.625,442.461z"/>
				<path style="fill-rule:evenodd;clip-rule:evenodd;fill:#98AA83;" d="M297.369,439.01c0.35-0.203,1.08,0.406,1.63,1.359
					c0.551,0.953,0.713,1.89,0.363,2.092c-0.351,0.202-1.079-0.407-1.629-1.361C297.183,440.147,297.02,439.211,297.369,439.01z"/>
				<path style="fill-rule:evenodd;clip-rule:evenodd;fill:#98AA83;" d="M303.817,439.01c-0.35-0.203-1.079,0.406-1.63,1.359
					c-0.551,0.953-0.713,1.89-0.364,2.092c0.35,0.202,1.08-0.407,1.629-1.361C304.004,440.147,304.167,439.211,303.817,439.01z"/>
			</g>
			<g>
				<path style="fill-rule:evenodd;clip-rule:evenodd;fill:#98AA83;" d="M104.231,449.371c0.402,0,0.73-0.896,0.73-1.994
					c0-1.097-0.329-1.993-0.73-1.993c-0.403,0-0.732,0.897-0.732,1.993C103.499,448.476,103.828,449.371,104.231,449.371z"/>
				<path style="fill-rule:evenodd;clip-rule:evenodd;fill:#98AA83;" d="M100.975,445.918c0.349-0.201,1.079,0.407,1.629,1.36
					c0.55,0.955,0.713,1.892,0.364,2.093c-0.35,0.201-1.079-0.408-1.63-1.362C100.789,447.057,100.625,446.119,100.975,445.918z"/>
				<path style="fill-rule:evenodd;clip-rule:evenodd;fill:#98AA83;" d="M107.423,445.918c-0.349-0.201-1.079,0.407-1.63,1.36
					c-0.55,0.955-0.713,1.892-0.363,2.093c0.35,0.201,1.079-0.408,1.629-1.362C107.609,447.057,107.772,446.119,107.423,445.918z"/>
			</g>
			<g>
				<path style="fill-rule:evenodd;clip-rule:evenodd;fill:#98AA83;" d="M204.155,438.74c0.403,0,0.73-0.896,0.73-1.992
					c0-1.1-0.328-1.994-0.73-1.994c-0.403,0-0.73,0.895-0.73,1.994C203.425,437.845,203.752,438.74,204.155,438.74z"/>
				<path style="fill-rule:evenodd;clip-rule:evenodd;fill:#98AA83;" d="M200.9,435.288c0.35-0.202,1.079,0.407,1.628,1.36
					c0.551,0.954,0.714,1.891,0.364,2.092c-0.349,0.202-1.079-0.407-1.629-1.36C200.713,436.426,200.55,435.489,200.9,435.288z"/>
				<path style="fill-rule:evenodd;clip-rule:evenodd;fill:#98AA83;" d="M207.347,435.288c-0.349-0.202-1.079,0.407-1.629,1.36
					c-0.551,0.954-0.713,1.891-0.364,2.092c0.35,0.202,1.079-0.407,1.63-1.36C207.534,436.426,207.697,435.489,207.347,435.288z"/>
			</g>
			<path style="fill-rule:evenodd;clip-rule:evenodd;fill:#647941;" d="M154.662,442.36c20.457,0,37.142-1.074,37.142-2.392
				c0-1.316-56.685-2.392-37.142-2.392c-20.457,0-37.142,1.075-37.142,2.392C117.521,441.286,134.205,442.36,154.662,442.36z"/>
			<path style="fill-rule:evenodd;clip-rule:evenodd;fill:#647941;" d="M370.871,442.677c32.523,0,59.047-1.074,59.047-2.391
				c0-1.318-26.523-2.393-59.047-2.393c-32.522,0-59.047,1.075-59.047,2.393C311.824,441.603,338.349,442.677,370.871,442.677z"/>
		</g>
		<g>
			<path style="fill-rule:evenodd;clip-rule:evenodd;fill:#324360;" d="M110.468,102.894c8.733,0,16.049,7.824,16.049,16.443
				c0,12.855-12.037,11.844-12.037,21.685c-0.346,2.4-1.611,3.606-3.773,3.606c-2.304-0.514-3.462-1.612-3.462-3.296v-1.039
				c0-13.184,11.964-11.791,11.964-21.351c0-4.924-4.343-8.741-9.134-8.741c-3.476,0-6.186,1.839-8.145,5.529l-0.943,4.621
				c-1.051,1.349-2.161,2.03-3.331,2.03c-2.401-0.513-3.595-1.707-3.595-3.57c0-5.111,2.508-9.565,7.511-13.35
				C104.629,103.754,107.591,102.894,110.468,102.894L110.468,102.894z M110.254,146.181h0.668c2.054,0,3.499,1.253,4.335,3.772
				v1.195c-0.526,2.842-2.149,4.263-4.86,4.263c-2.914-0.633-4.371-2.126-4.371-4.478
				C106.026,148.318,107.435,146.73,110.254,146.181z"/>
			<path style="fill-rule:evenodd;clip-rule:evenodd;fill:#324360;" d="M440.135,109.002c8.733,0,16.049,7.824,16.049,16.443
				c0,12.854-12.036,11.843-12.036,21.685c-0.347,2.4-1.612,3.606-3.773,3.606c-2.305-0.514-3.462-1.611-3.462-3.296v-1.038
				c0-13.184,11.964-11.791,11.964-21.351c0-4.923-4.343-8.741-9.134-8.741c-3.477,0-6.186,1.839-8.145,5.529l-0.944,4.621
				c-1.051,1.349-2.162,2.03-3.331,2.03c-2.4-0.513-3.594-1.707-3.594-3.57c0-5.111,2.508-9.565,7.511-13.351
				C434.296,109.862,437.258,109.002,440.135,109.002L440.135,109.002z M439.92,152.289h0.668c2.056,0,3.499,1.254,4.336,3.774
				v1.194c-0.525,2.842-2.149,4.263-4.86,4.263c-2.913-0.633-4.37-2.126-4.37-4.478C435.693,154.426,437.102,152.838,439.92,152.289
				z"/>
			<g>
				<path style="fill-rule:evenodd;clip-rule:evenodd;fill:#FFFFFF;" d="M207.749,162.519c8.734,0,16.049,7.824,16.049,16.443
					c0,12.855-12.036,11.844-12.036,21.686c-0.347,2.4-1.612,3.606-3.773,3.606c-2.305-0.513-3.463-1.612-3.463-3.296v-1.039
					c0-13.184,11.965-11.791,11.965-21.35c0-4.924-4.343-8.741-9.135-8.741c-3.475,0-6.185,1.838-8.145,5.529l-0.943,4.621
					c-1.051,1.35-2.162,2.03-3.332,2.03c-2.4-0.514-3.594-1.707-3.594-3.571c0-5.11,2.508-9.565,7.511-13.351
					C201.911,163.378,204.872,162.519,207.749,162.519L207.749,162.519z M207.535,205.806h0.668c2.055,0,3.499,1.253,4.335,3.773
					v1.194c-0.526,2.842-2.149,4.263-4.86,4.263c-2.914-0.632-4.37-2.126-4.37-4.478
					C203.308,207.943,204.717,206.355,207.535,205.806z"/>
				<path style="fill-rule:evenodd;clip-rule:evenodd;fill:#FFFFFF;" d="M87.86,233.342c5.644,0,10.372,5.056,10.372,10.627
					c0,8.306-7.779,7.655-7.779,14.014c-0.224,1.552-1.042,2.331-2.439,2.331c-1.489-0.332-2.238-1.043-2.238-2.131v-0.671
					c0-8.52,7.733-7.621,7.733-13.798c0-3.183-2.807-5.65-5.904-5.65c-2.245,0-3.998,1.188-5.263,3.574l-0.609,2.986
					c-0.679,0.871-1.396,1.313-2.153,1.313c-1.552-0.333-2.323-1.104-2.323-2.308c0-3.304,1.621-6.182,4.854-8.628
					C84.086,233.898,86.001,233.342,87.86,233.342L87.86,233.342z M87.721,261.317h0.433c1.327,0,2.261,0.81,2.801,2.438v0.771
					c-0.339,1.838-1.389,2.755-3.141,2.755c-1.883-0.407-2.824-1.373-2.824-2.893C84.99,262.699,85.9,261.673,87.721,261.317z"/>
				<path style="fill-rule:evenodd;clip-rule:evenodd;fill:#FFFFFF;" d="M305.295,306.228c6.517,0,11.976,5.838,11.976,12.269
					c0,9.592-8.982,8.838-8.982,16.181c-0.259,1.792-1.202,2.692-2.815,2.692c-1.72-0.384-2.584-1.204-2.584-2.46v-0.775
					c0-9.837,8.928-8.798,8.928-15.931c0-3.675-3.24-6.523-6.816-6.523c-2.592,0-4.615,1.372-6.077,4.126l-0.703,3.448
					c-0.785,1.007-1.612,1.514-2.486,1.514c-1.791-0.382-2.683-1.272-2.683-2.662c0-3.814,1.871-7.139,5.605-9.963
					C300.936,306.869,303.146,306.228,305.295,306.228L305.295,306.228z M305.135,338.528h0.499c1.532,0,2.611,0.936,3.233,2.816
					v0.891c-0.392,2.121-1.603,3.182-3.626,3.182c-2.175-0.473-3.262-1.586-3.262-3.341
					C301.979,340.123,303.03,338.936,305.135,338.528z"/>
				<path style="fill-rule:evenodd;clip-rule:evenodd;fill:#FFFFFF;" d="M205.456,317.17c6.517,0,11.975,5.838,11.975,12.269
					c0,9.592-8.982,8.838-8.982,16.181c-0.259,1.792-1.202,2.692-2.815,2.692c-1.72-0.384-2.585-1.204-2.585-2.46v-0.775
					c0-9.837,8.928-8.798,8.928-15.931c0-3.675-3.241-6.523-6.816-6.523c-2.593,0-4.616,1.372-6.078,4.126l-0.703,3.448
					c-0.785,1.008-1.613,1.515-2.486,1.515c-1.791-0.383-2.682-1.273-2.682-2.663c0-3.815,1.871-7.139,5.605-9.963
					C201.098,317.81,203.307,317.17,205.456,317.17L205.456,317.17z M205.296,349.47h0.498c1.533,0,2.611,0.936,3.233,2.815v0.891
					c-0.392,2.121-1.603,3.182-3.625,3.182c-2.176-0.473-3.263-1.586-3.263-3.341C202.14,351.065,203.191,349.878,205.296,349.47z"
					/>
			</g>
		</g>
		<g>
			<g>
				<path style="fill-rule:evenodd;clip-rule:evenodd;fill:#F3D104;" d="M359.867,198.758l-7.069,18.758l32.472-18.748h9.068
					c11.727,0,21.32-9.595,21.32-21.321l0,0c0-11.726-9.594-21.321-21.32-21.321h-33.82c-11.728,0-21.321,9.595-21.321,21.321l0,0
					C339.196,188.957,348.436,198.411,359.867,198.758z"/>
				<g>
					<path style="fill-rule:evenodd;clip-rule:evenodd;fill:#4F2E42;" d="M363.02,181.374c1.611,0,2.924-1.313,2.924-2.923
						c0-1.61-1.313-2.923-2.924-2.923c-1.609,0-2.923,1.313-2.923,2.923C360.097,180.061,361.41,181.374,363.02,181.374z"/>
					
						<ellipse transform="matrix(1 -0.0058 0.0058 1 -1.0312 2.1694)" style="fill-rule:evenodd;clip-rule:evenodd;fill:#4F2E42;" cx="372.625" cy="178.45" rx="2.923" ry="2.923"/>
					<path style="fill-rule:evenodd;clip-rule:evenodd;fill:#4F2E42;" d="M382.23,181.374c1.609,0,2.923-1.313,2.923-2.923
						c0-1.61-1.314-2.923-2.923-2.923c-1.61,0-2.924,1.313-2.924,2.923C379.307,180.061,380.62,181.374,382.23,181.374z"/>
					<path style="fill-rule:evenodd;clip-rule:evenodd;fill:#4F2E42;" d="M391.836,181.374c1.609,0,2.923-1.313,2.923-2.923
						c0-1.61-1.314-2.923-2.923-2.923c-1.611,0-2.924,1.313-2.924,2.923C388.912,180.061,390.225,181.374,391.836,181.374z"/>
				</g>
			</g>
			<g>
				<path style="fill-rule:evenodd;clip-rule:evenodd;fill:#465B87;" d="M132.153,215.348l7.067,18.759l-32.472-18.748h-9.067
					c-11.728,0-21.321-9.594-21.321-21.32l0,0c0-11.728,9.594-21.321,21.321-21.321h33.819c11.727,0,21.321,9.594,21.321,21.321l0,0
					C152.822,205.546,143.581,215.001,132.153,215.348z"/>
				<g>
					<path style="fill-rule:evenodd;clip-rule:evenodd;fill:#FFFFFF;" d="M100.185,200.09c1.609,0,2.923-1.313,2.923-2.923
						c0-1.61-1.313-2.924-2.923-2.924c-1.61,0-2.924,1.313-2.924,2.924C97.26,198.777,98.574,200.09,100.185,200.09z"/>
					<path style="fill-rule:evenodd;clip-rule:evenodd;fill:#FFFFFF;" d="M109.789,200.09c1.61,0,2.924-1.313,2.924-2.923
						c0-1.61-1.313-2.924-2.924-2.924c-1.61,0-2.924,1.313-2.924,2.924C106.865,198.777,108.179,200.09,109.789,200.09z"/>
					<path style="fill-rule:evenodd;clip-rule:evenodd;fill:#FFFFFF;" d="M119.395,200.09c1.61,0,2.924-1.313,2.924-2.923
						c0-1.61-1.313-2.924-2.924-2.924c-1.61,0-2.923,1.313-2.923,2.924C116.472,198.777,117.784,200.09,119.395,200.09z"/>
					<path style="fill-rule:evenodd;clip-rule:evenodd;fill:#FFFFFF;" d="M128.999,200.09c1.61,0,2.924-1.313,2.924-2.923
						c0-1.61-1.314-2.924-2.924-2.924c-1.61,0-2.923,1.313-2.923,2.924C126.076,198.777,127.389,200.09,128.999,200.09z"/>
				</g>
			</g>
			<g>
				<path style="fill-rule:evenodd;clip-rule:evenodd;fill:#CF801C;" d="M370.836,59.14h30.529c7.245,0,13.172,5.927,13.172,13.171
					v30.53c0,7.244-5.927,13.171-13.172,13.171h-10.331l-24.599,12.757l6.827-12.757h-2.427c-7.245,0-13.171-5.927-13.171-13.171
					v-30.53C357.665,65.067,363.591,59.14,370.836,59.14z"/>
				<path style="fill-rule:evenodd;clip-rule:evenodd;fill:#FFFFFF;" d="M386.244,68.441c6.966,0,12.801,6.241,12.801,13.115
					c0,10.252-9.601,9.446-9.601,17.296c-0.276,1.914-1.286,2.876-3.01,2.876c-1.837-0.41-2.762-1.286-2.762-2.629v-0.828
					c0-10.516,9.543-9.405,9.543-17.03c0-3.927-3.465-6.971-7.286-6.971c-2.771,0-4.934,1.467-6.496,4.41l-0.752,3.685
					c-0.838,1.076-1.724,1.62-2.657,1.62c-1.914-0.41-2.866-1.362-2.866-2.848c0-4.077,2-7.629,5.99-10.648
					C381.587,69.127,383.949,68.441,386.244,68.441L386.244,68.441z M386.073,102.966h0.531c1.64,0,2.792,1,3.458,3.009v0.952
					c-0.419,2.268-1.713,3.401-3.877,3.401c-2.322-0.505-3.484-1.695-3.484-3.572C382.701,104.67,383.825,103.404,386.073,102.966z"
					/>
			</g>
			<g>
				<g>
					<path style="fill-rule:evenodd;clip-rule:evenodd;fill:#CF801C;" d="M75.989,345.36c14.651,0,26.601-11.949,26.601-26.602
						c0-14.652-11.95-26.602-26.601-26.602c-14.652,0-26.602,11.95-26.602,26.602C49.387,333.411,61.337,345.36,75.989,345.36z"/>
					<path style="fill-rule:evenodd;clip-rule:evenodd;fill:#FFFFFF;" d="M76.108,301.142c5.859,0,10.768,5.249,10.768,11.032
						c0,8.623-8.075,7.944-8.075,14.548c-0.233,1.61-1.082,2.42-2.532,2.42c-1.546-0.345-2.323-1.082-2.323-2.211v-0.698
						c0-8.844,8.027-7.908,8.027-14.323c0-3.303-2.914-5.865-6.129-5.865c-2.331,0-4.15,1.234-5.464,3.71l-0.632,3.101
						c-0.705,0.904-1.45,1.361-2.236,1.361c-1.609-0.344-2.411-1.145-2.411-2.395c0-3.429,1.682-6.417,5.039-8.958
						C72.191,301.719,74.178,301.142,76.108,301.142L76.108,301.142z M75.964,330.182h0.448c1.378,0,2.348,0.843,2.909,2.531v0.802
						c-0.353,1.907-1.442,2.86-3.26,2.86c-1.955-0.423-2.933-1.427-2.933-3.004C73.128,331.616,74.074,330.551,75.964,330.182z"/>
				</g>
				<polygon style="fill-rule:evenodd;clip-rule:evenodd;fill:#CF801C;" points="92.637,320.776 110.974,320.776 91.839,340.176 
					92.637,333.002 				"/>
			</g>
		</g>
		<g>
			<g>
				<path style="fill-rule:evenodd;clip-rule:evenodd;fill:#4F2E42;" d="M164.748,231.084c0.898,3.388-2.699,9.966-2.699,9.566
					c0-0.398-2.772-10.032-2.772-10.032L164.748,231.084z"/>
				<path style="fill-rule:evenodd;clip-rule:evenodd;fill:#D98C80;" d="M201.352,269.014l2.893-2.219c0,0,0.927-3.905,1.265-4.597
					c0.338-0.689,1.904-3.124,1.904-3.124s1.948-1.767,1.747-0.379c-0.2,1.389-0.186,4.214-0.186,4.214
					c9.375-5.772,15.87-2.555,0.26,8.837c-0.411,0.587-0.986,1.22-1.745,1.897c-6.24,5.571-21.126,20.359-24.2,19.938
					c-3.834-0.522-31.205-14.731-37.742-30.507c0.522-2.093,8.982-0.927,16.304,2.561c7.322,3.485,20.87,13.295,20.87,13.295
					S194.273,272.474,201.352,269.014z"/>
				<path style="fill-rule:evenodd;clip-rule:evenodd;fill:#748B4B;" d="M169.863,290.138c-1.995-1.593-4.197-3.412-6.288-5.271
					c-0.134-0.119-0.268-0.239-0.402-0.359c-3.095-2.781-5.897-5.62-7.347-7.891c-2.576-4.034-1.817-8.79-0.348-12.17
					c1.021-2.347,2.383-4.031,3.208-4.351c1.134,0.314,2.273,0.725,3.411,1.221c7.271,3.172,14.505,9.818,20.21,16.314
					c-0.608,0.533-1.196,1.055-1.764,1.563c-3.029,2.726-5.461,5.119-7.415,7.206C171.843,287.775,170.766,289.019,169.863,290.138z
					"/>
				<path style="fill-rule:evenodd;clip-rule:evenodd;fill:#D18074;" d="M160.416,414.881c0.119,11.972-0.08,18.616-0.08,18.616
					s-0.892,2.82,4.706,4.563c5.599,1.743,2.827-4.66,2.827-4.66C168.029,429.597,167.429,410.551,160.416,414.881z"/>
				<path style="fill-rule:evenodd;clip-rule:evenodd;fill:#D18074;" d="M131.449,414.881c0.12,11.972-0.08,18.616-0.08,18.616
					s-0.892,2.82,4.706,4.563c5.599,1.743,2.828-4.66,2.828-4.66C139.062,429.597,138.461,410.551,131.449,414.881z"/>
				<path style="fill-rule:evenodd;clip-rule:evenodd;fill:#4F2E42;" d="M135.734,329.554l-1.861,51.97l-5.08,47.963l12.241,0.39
					l13.958-79.591l5.866,35.3l-2.284,44.291l10.749-0.157l6.494-45.656l-0.895-56.14
					C174.921,327.923,146.482,324.428,135.734,329.554z"/>
				<path style="fill-rule:evenodd;clip-rule:evenodd;fill:#748B4B;" d="M134.613,298.545c0.312,9.311-2.095,36.324-1.908,36.471
					c9.387,7.401,32.793,7.739,42.869-0.534c0.058-0.046-3.063-62.973-13.67-72.727c-3.079-2.831-8.138-4.131-10.951-4.28
					c-2.053-0.108-12.63,1.757-15.038,2.852c-8.487,3.861-9.463,13.548-9.224,13.741l7.712,10.672l0.298,0.615
					C134.486,289.249,134.449,293.626,134.613,298.545z"/>
				<path style="fill-rule:evenodd;clip-rule:evenodd;fill:#D18074;" d="M146.331,244.915c0.784,13.436,0.784,13.436,0.784,13.436
					s-0.56,6.27,5.038,8.174c5.598,1.901,3.359-6.831,3.359-6.831l-0.224-6.269C155.288,253.425,151.482,241.444,146.331,244.915z"
					/>
				<path style="fill-rule:evenodd;clip-rule:evenodd;fill:#D98C80;" d="M146.387,241.221c-1.794-1.899-3.695,1.678-1.694,3.083
					c0.79,0.556,1.862,0.556,1.862,0.556s0.337,4.311,5.487,7.222c5.15,2.911,10.076,0.895,10.3-6.941
					c0.225-7.838,0.784-12.652,0.784-12.652l-13.099-0.783C150.026,231.704,149.354,237.75,146.387,241.221z"/>
				<path style="fill-rule:evenodd;clip-rule:evenodd;fill:#D98C80;" d="M127.817,283.609c-5.7,4.529-12.598,12.156-12.598,12.156
					l17.256,22.488c0,0,3.904,0.928,4.595,1.266c0.691,0.339,3.124,1.904,3.124,1.904s1.767,1.946,0.379,1.747
					c-1.388-0.2-4.213-0.185-4.213-0.185c5.885,9.559,2.426,16.127-9.517-0.683c0,0-16.087-18.884-17.231-23.428
					c-1.144-4.543,7.983-18.839,7.983-18.839L127.817,283.609z"/>
				<path style="fill-rule:evenodd;clip-rule:evenodd;fill:#4F2E42;" d="M144.155,241.01c0,0,0.942-0.68,1.726,0.366
					c0.784,1.045,0.784,1.098,0.784,1.098s3.347-4.288,3.557-7.479c0.209-3.19,0.209-3.295,0.209-3.295s14.121,4.236,16.945-1.727
					c3.938-8.313-19.292-14.935-23.231-3.726c-0.973-0.674-5.537-0.825-1.573,1.333c-0.312-0.021-1.76,0.601-1.849,1.108
					C140.243,231.43,143.688,239.999,144.155,241.01z"/>
				<path style="fill-rule:evenodd;clip-rule:evenodd;fill:#D98C80;" d="M134.069,262.48c2.092,0.522,10.493,5.795,7.007,13.115
					c-3.486,7.322-22.864,19.274-22.864,19.274s12.922,22.163,12.573,23.906c-0.741,3.704-1.496,6.827-5.159,2.724
					c-5.571-6.241-20.358-21.128-19.938-24.2C106.21,293.465,118.291,269.018,134.069,262.48z"/>
				<path style="fill-rule:evenodd;clip-rule:evenodd;fill:#4F2E42;" d="M159.718,432.565c0,7.247,0,7.247,0,7.247h20.755
					l-13.288-7.247H159.718z"/>
				<path style="fill-rule:evenodd;clip-rule:evenodd;fill:#4F2E42;" d="M131.234,432.565c0,7.247,0,7.247,0,7.247h20.756
					l-13.288-7.247H131.234z"/>
				<path style="fill-rule:evenodd;clip-rule:evenodd;fill:#748B4B;" d="M128.818,290.751c1.783-1.825,3.742-3.904,5.587-6.01
					c0.119-0.135,0.238-0.271,0.355-0.407c2.727-3.14,5.156-6.305,6.315-8.738c2.295-4.82-0.027-19.203-8.115-14.404
					c-6.823,4.047-13.179,11.534-18.038,18.686c0.671,0.454,1.318,0.898,1.944,1.335c3.344,2.329,6.053,4.401,8.25,6.232
					C126.56,288.65,127.784,289.751,128.818,290.751z"/>
				<path style="fill-rule:evenodd;clip-rule:evenodd;fill:#4F2E42;" d="M147.251,238.957c0.844,5.548,3.098,10.125,6.064,11.59
					c4.047,1.998,8.535-0.168,8.885-5.61c0.279-4.34,1.242,1.48-0.419,5.612c-0.827,2.057-2.126,3.347-4.83,3.457
					c-4.01,0.163-6.189-0.615-8.013-2.785c-1.877-2.234-2.778-5.809-3.082-11.2C145.258,229.39,147.251,238.957,147.251,238.957z"/>
				<path style="fill-rule:evenodd;clip-rule:evenodd;fill:#4F2E42;" d="M153.064,251.448c-1.563-6.802,2.064-8.241,4.588-8.095
					c3.746,0.218,4.569,3.516,2.92,7.962c-0.421,1.135-1.008,0.95-0.949-0.823c0.069-2.029-0.618-3.595-1.58-3.805
					c-1.421-0.311-3.05,0.42-3.226,2.16C154.536,251.632,153.788,252.597,153.064,251.448z"/>
			</g>
			<g>
				<g>
					<path style="fill-rule:evenodd;clip-rule:evenodd;fill:#D18074;" d="M339.344,414.881c-0.118,11.972,0.08,18.616,0.08,18.616
						s0.893,2.82-4.705,4.563c-5.598,1.743-2.828-4.66-2.828-4.66C331.731,429.597,332.334,410.551,339.344,414.881z"/>
					<path style="fill-rule:evenodd;clip-rule:evenodd;fill:#D18074;" d="M365.775,414.881c2.12,11.972,3.561,18.616,3.561,18.616
						s1.419,2.82-3.852,4.563c-5.273,1.743-3.701-4.66-3.701-4.66C360.915,429.597,357.954,410.551,365.775,414.881z"/>
					<path style="fill-rule:evenodd;clip-rule:evenodd;fill:#4F2E42;" d="M339.444,432.565c0,7.247,0,7.247,0,7.247h-20.756
						l13.288-7.247H339.444z"/>
					<path style="fill-rule:evenodd;clip-rule:evenodd;fill:#4F2E42;" d="M369.297,432.565c1.355,7.247,1.355,7.247,1.355,7.247
						h-20.755l11.933-7.247H369.297z"/>
					<path style="fill-rule:evenodd;clip-rule:evenodd;fill:#793323;" d="M336.892,232.247c-4.785,4.518-7.974,9.568-4.119,19.399
						c3.854,9.834-13.688,8.506-11.959,22.059c2.581,20.257,50.533,3.46,55.542-1.063c8.239-7.441-5.447-16.344-10.629-19.268
						c-5.185-2.923-1.86-13.688-4.387-19.401c-2.524-5.713-6.377-5.448-7.972-5.182
						C351.773,229.059,336.892,232.247,336.892,232.247z"/>
					<path style="fill-rule:evenodd;clip-rule:evenodd;fill:#D98C80;" d="M297.938,269.014l-2.893-2.219
						c0,0-0.927-3.905-1.264-4.597c-0.34-0.689-1.906-3.124-1.906-3.124s-1.946-1.767-1.745-0.379
						c0.198,1.389,0.186,4.214,0.186,4.214c-9.375-5.772-15.871-2.555-0.26,8.837c0.41,0.587,0.985,1.22,1.745,1.897
						c6.239,5.571,21.127,20.359,24.199,19.938c3.835-0.522,31.205-14.731,37.743-30.507c-0.524-2.093-8.983-0.927-16.305,2.561
						c-7.322,3.485-20.87,13.295-20.87,13.295S305.018,272.474,297.938,269.014z"/>
					<path style="fill-rule:evenodd;clip-rule:evenodd;fill:#4F2E42;" d="M326.505,291.334c4.86-3.88,20.226-20.175,17.308-26.888
						c-1.021-2.347-0.655-4.43-1.478-4.749c-6.24,0.857-15.035,9.188-25.352,17.933
						C322.279,282.133,322.972,284.431,326.505,291.334z"/>
					<path style="fill-rule:evenodd;clip-rule:evenodd;fill:#6E6E6D;" d="M363.904,324.499l1.86,56.934l3.753,47.884l-10.116,0.388
						l-8.03-36.097l-9.116-45.488l-3.475,37.368l1.485,44.217l-9.685-0.156l-6.759-45.582l1.161-60.563
						C324.983,323.402,353.156,319.384,363.904,324.499z"/>
					<path style="fill-rule:evenodd;clip-rule:evenodd;fill:#4F2E42;" d="M364.806,324.653c-9.387,7.398-30.666,8.006-40.742-0.268
						c-0.021-0.017,2.542-10.174,5.534-18.066c6.291-16.579,1.561-38.518,8.136-44.563c3.08-2.831,8.139-4.131,10.952-4.28
						c4.716-0.248,10.085,2.985,12.048,10.644c1.223,4.767,7.705,5.473,4.608,12.757c-1.262,2.972-6.284,18.111-4.265,27.637
						C362.628,315.824,364.913,324.569,364.806,324.653z"/>
					<path style="fill-rule:evenodd;clip-rule:evenodd;fill:#D18074;" d="M353.308,244.915c-0.785,13.436-0.785,13.436-0.785,13.436
						c0.331-0.21-4.512,4.191-7.185,4.901c-2.218,0.589-2.487-2.358-1.212-3.559l0.224-6.269
						C344.35,253.425,348.155,241.444,353.308,244.915z"/>
					<path style="fill-rule:evenodd;clip-rule:evenodd;fill:#D98C80;" d="M353.251,241.221c1.793-1.899,3.693,1.678,1.694,3.083
						c-0.791,0.556-1.861,0.556-1.861,0.556s-0.337,4.311-5.488,7.222c-5.15,2.911-10.075,0.895-10.301-6.941
						c-0.223-7.838-0.782-12.652-0.782-12.652l13.1-0.783C349.612,231.704,350.282,237.75,353.251,241.221z"/>
					<path style="fill-rule:evenodd;clip-rule:evenodd;fill:#4F2E42;" d="M354.185,258.817
						c16.448-2.272,16.947,21.377,16.635,21.628l-5.586,4.294l-6.03,12.489L354.185,258.817z"/>
					<path style="fill-rule:evenodd;clip-rule:evenodd;fill:#FFFFFF;" d="M343.716,271.733c0.708,0,1.284-0.575,1.284-1.282
						c0-0.707-0.576-1.284-1.284-1.284c-0.706,0-1.282,0.577-1.282,1.284C342.434,271.158,343.01,271.733,343.716,271.733z"/>
					<path style="fill-rule:evenodd;clip-rule:evenodd;fill:#FFFFFF;" d="M342.466,275.483c0.708,0,1.284-0.575,1.284-1.282
						c0-0.707-0.576-1.284-1.284-1.284c-0.706,0-1.282,0.577-1.282,1.284C341.184,274.908,341.76,275.483,342.466,275.483z"/>
					<path style="fill-rule:evenodd;clip-rule:evenodd;fill:#FFFFFF;" d="M342.321,284.485c1.104,0,2.005-0.901,2.005-2.006
						c0-1.104-0.9-2.006-2.005-2.006s-2.004,0.901-2.004,2.006C340.317,283.584,341.217,284.485,342.321,284.485z"/>
					<path style="fill-rule:evenodd;clip-rule:evenodd;fill:#793323;" d="M332.839,236.765c5.447,3.056,7.84,1.727,11.095,0.066
						c3.255-1.661,5.048-4.65,5.048-4.65s-1.195,2.922,0.268,6.511c1.462,3.587,2.989,4.65,2.989,4.65s1.197-2.988,2.325-2.656
						c1.129,0.332,1.263,1.992,1.263,1.992s3.123-12.557,1.063-13.554c-2.06-0.997-2.592-0.598-2.592-0.598
						s-3.123-5.314-8.704-4.982C340.013,223.876,333.636,224.873,332.839,236.765z"/>
					<polygon style="fill-rule:evenodd;clip-rule:evenodd;fill:#999A9A;" points="321.575,281.344 347.064,279.044 353.799,318.336 
						328.309,320.636 					"/>
					<path style="fill-rule:evenodd;clip-rule:evenodd;fill:#D98C80;" d="M367.249,268.071c-1.787-1.206-6.26-0.088-9.376,7.398
						c-3.116,7.488-2.826,22.914-2.826,22.914s-17.101,4.009-24.476,4.569c-3.768,0.285-4.94,7.185,0.561,7.169
						c8.365-0.025,29.284,0.482,31.289-1.884C364.925,305.287,372.929,284.177,367.249,268.071z"/>
					<path style="fill-rule:evenodd;clip-rule:evenodd;fill:#D98C80;" d="M335.56,309.83c-9.984,1.356-12.48-0.674-13.575-3.753
						c-1.074-3.024-0.197-4.756,2.183-7.555c0.373-0.438,0.417,2.508,1.036,2.84c0.127,0.068,2.265,0.226,2.291-0.125
						c0.055-0.744-2.411-3.048-0.964-2.927c1.106,0.093,5.656,3.068,5.882,3.247C333.783,302.643,336.142,307.715,335.56,309.83z"/>
					<path style="fill-rule:evenodd;clip-rule:evenodd;fill:#4F2E42;" d="M351.84,296.08c5.137,1.444,10.525,3.236,14.015,6.841
						c5.755-14.054,7.121-23.29,3.523-33.551c-1.039-2.963-2.492-5.789-6.61-8.914c-3.814-2.573-5.512,4.205-7.487,8.948
						c-1.324,3.183-1.936,7.64-2.346,11.073C352.185,286.742,351.923,293.357,351.84,296.08z"/>
				</g>
				<g>
					<path style="fill-rule:evenodd;clip-rule:evenodd;fill:#D98C80;" d="M372.788,312.982c1.368,3.301,3.103,6.592,4.215,8.571
						c0.116,0.208-0.921-0.632-1.453-0.681c-2.066-0.189,3.582,5.673,4.16,3.072c0.222-0.996,2.325-10.963,2.103-11.848
						c-0.223-0.886-4.541-3.877-4.541-3.877L372.788,312.982z"/>
					<path style="fill-rule:evenodd;clip-rule:evenodd;fill:#793323;" d="M412.089,223.691c3.647,2.808,2.661,5.912,0.297,12.121
						c-2.365,6.207-4.73,10.248-4.73,10.248s-1.873-16.949-1.28-17.836C406.965,227.336,409.429,222.804,412.089,223.691z"/>
					<path style="fill-rule:evenodd;clip-rule:evenodd;fill:#F1CC1F;" d="M397.409,253.148c-12.021,9.855-20.102,27-20.102,27
						l9.657,10.643C386.965,290.79,397.606,263.985,397.409,253.148z"/>
					<path style="fill-rule:evenodd;clip-rule:evenodd;fill:#D98C80;" d="M416.032,424.539c0.844,10.347,0.844,10.347,0.844,10.347
						h5.518l0.881-10.741L416.032,424.539z"/>
					<path style="fill-rule:evenodd;clip-rule:evenodd;fill:#D98C80;" d="M394.052,424.539c0.259,10.347,0.259,10.347,0.259,10.347
						h-5.518l-2.025-10.741L394.052,424.539z"/>
					<path style="fill-rule:evenodd;clip-rule:evenodd;fill:#324360;" d="M394.9,433.308c0,6.504,0,6.504,0,6.504h-18.622
						l11.923-6.504H394.9z"/>
					<path style="fill-rule:evenodd;clip-rule:evenodd;fill:#324360;" d="M422.886,433.308c0,6.504,0,6.504,0,6.504h-18.622
						l11.923-6.504H422.886z"/>
					<path style="fill-rule:evenodd;clip-rule:evenodd;fill:#324360;" d="M418.972,320.523l-0.161,11.893l0.542,46.815l6.036,49.393
						l-12.208-0.71l-14.635-78.516l-3.826,34.655l2.185,43.86l-10.28,0.945l-6.211-46.352l0.856-56.996
						c0,0,7.593-12.206,15.825-12.427C405.101,312.869,413.903,317.958,418.972,320.523z"/>
					<path style="fill-rule:evenodd;clip-rule:evenodd;fill:#EBEBEB;" d="M415.605,287.889c-0.329,9.833,1.273,33.127,1.076,33.283
						c-5.852,4.612-12.927-4.884-20.658-5.798c-5.368-0.636-11.514,8.828-15.874,5.247c-0.242-0.198,3.833-27.007,3.833-32.238
						c0-27.165,12.174-36.796,20.346-37.227C414.592,250.615,416.756,253.567,415.605,287.889z"/>
					<path style="fill-rule:evenodd;clip-rule:evenodd;fill:#D18074;" d="M409.209,237.891c-0.827,14.189-0.827,14.189-0.827,14.189
						c0.713,8.001-9.953,13.157-9.375,4.376c0.209-3.19,0.622-6.18,0.743-9.579C399.75,246.877,403.769,234.225,409.209,237.891z"/>
					<path style="fill-rule:evenodd;clip-rule:evenodd;fill:#D98C80;" d="M409.151,233.99c1.895-2.006,3.9,1.77,1.789,3.255
						c-0.836,0.586-1.967,0.588-1.967,0.588s-0.355,4.552-5.795,7.626c-5.44,3.074-10.642,0.946-10.879-7.332
						c-0.237-8.277-0.829-13.361-0.829-13.361l13.836-0.828C405.307,223.939,406.016,230.324,409.151,233.99z"/>
					<path style="fill-rule:evenodd;clip-rule:evenodd;fill:#793323;" d="M409.02,237.141c-1.111-1.811-3.054-6.503-3.666-9.086
						c-0.246-1.04-1.784-0.565-2.898-1c-1.349-0.525-2.309-1.84-2.6-1.788c-2.179,0.392-5.883,1.764-8.707,1.073
						c-12.803-3.132,10.441-14.201,16.572-4.629c0.347,0.541,1.738-0.805,1.623-0.259c1.214-0.833,2.237-1.161,1.408-0.249
						c-0.83,0.912,0.055,0.026,0.055,0.026s2.662,0.147,2.514,1.232c-0.054,0.386-0.857,0.572-1.781,0.593
						c1.005,0.714,2.088,1.82,2.088,3.273c0,1.132-2.762,3.139-3.717,5.196C409.038,233.407,409.613,238.108,409.02,237.141z"/>
					<path style="fill-rule:evenodd;clip-rule:evenodd;fill:#D98C80;" d="M431.496,289.586l1.943-4.459
						c4.155-4.88,12.419-13.135,15.953-18.479c0,0-0.342-3.429-0.261-4.085c0.081-0.655,1.004-4.62,1.004-4.62
						c1.568-2.857,1.162,3.627,3.115,3.009c2.177-0.69,7.562-2.142,10.235-2.004c6.35,0.323-5.292,6.434-5.945,6.926
						c-8.165,6.146-15.534,28.397-22.168,29.595C431.01,296.258,432.535,293.282,431.496,289.586z"/>
					<path style="fill-rule:evenodd;clip-rule:evenodd;fill:#F1CC1F;" d="M410.422,253.148c12.022,9.855,20.102,27,20.102,27
						l-9.655,10.643C420.868,290.79,410.225,263.985,410.422,253.148z"/>
					<path style="fill-rule:evenodd;clip-rule:evenodd;fill:#995014;" d="M378.612,308.821c-0.971-3.212-3.443-11.574-2.941-12.853
						c0.505-1.277,8.315-9.21,8.315-9.21l-4.865,38.851l9.865,9.053l7.298-14.487l1.281-32.672
						c0.159-3.716,2.027-36.724,1.804-36.668c-8.184,2.047-31.868,31.003-36.151,41.668c-3.287,8.185,1.828,10.635,10.038,23.096
						C374.997,318.235,379.583,312.033,378.612,308.821z"/>
					<path style="fill-rule:evenodd;clip-rule:evenodd;fill:#995014;" d="M408.422,249.852c0.619,3.618-11.389,33.112-11.851,46.134
						c-0.52,14.688-0.078,12.558-0.225,22.142c-0.111,7.318,5.438,16.567,5.438,16.567l18.001-11.959l-1.651-35.37
						c0,0,9.228,14.969,13.564,16.108c4.335,1.141,22.389-26.959,22.389-26.959l-6.161-9.522l-13.811,15.529
						C434.113,282.522,423.482,256.24,408.422,249.852z"/>
					<path style="fill-rule:evenodd;clip-rule:evenodd;fill:#793323;" d="M414.086,230.37c1.235-3.517,1.851-7.107-0.331-9.216
						c-2.145-2.073-3.205-0.86-3.707-2.372c-2.638-7.944-17.47-4.538-20.218-1.363c-3.296,3.806,14.559,7.247,15.414,7.647
						C406.1,225.464,411.006,235.276,414.086,230.37z"/>
					<g>
						<g>
							<polygon style="fill:#823F0D;" points="396.656,295.397 389.102,266.781 395.108,261.143 390.549,260.168 396.337,251.878 
								396.758,252.173 391.412,259.828 396.174,260.847 389.676,266.945 396.855,294.139 413.446,268.323 407.986,261.803 
								413.02,259.103 410.145,251.674 410.624,251.489 413.661,259.342 408.783,261.957 414.081,268.283 413.979,268.441 							
								"/>
						</g>
						<g>
							<path style="fill:#823F0D;" d="M396.357,320.681l-0.513-0.002c0.001-0.139,0.065-14.047,0.897-25.936l0.511,0.036
								C396.423,306.651,396.358,320.542,396.357,320.681z"/>
						</g>
					</g>
				</g>
			</g>
		</g>
	</g>
</g>
</svg>
